<svg id="visual" viewBox="0 0 450 4500" width="450" height="4500" xmlns="http://www.w3.org/2000/svg" xmlns:xlink="http://www.w3.org/1999/xlink" version="1.1"><rect x="0" y="0" width="450" height="4500" fill="#06291d"></rect><path d="M0 4162L64 4162L64 4212L129 4212L129 4225L193 4225L193 4186L257 4186L257 4167L321 4167L321 4224L386 4224L386 4174L450 4174L450 4250L450 4501L450 4501L386 4501L386 4501L321 4501L321 4501L257 4501L257 4501L193 4501L193 4501L129 4501L129 4501L64 4501L64 4501L0 4501Z" fill="#a96094"></path><path d="M0 4266L64 4266L64 4310L129 4310L129 4262L193 4262L193 4300L257 4300L257 4291L321 4291L321 4281L386 4281L386 4244L450 4244L450 4307L450 4501L450 4501L386 4501L386 4501L321 4501L321 4501L257 4501L257 4501L193 4501L193 4501L129 4501L129 4501L64 4501L64 4501L0 4501Z" fill="#606095"></path><path d="M0 4369L64 4369L64 4338L129 4338L129 4361L193 4361L193 4316L257 4316L257 4361L321 4361L321 4372L386 4372L386 4366L450 4366L450 4309L450 4501L450 4501L386 4501L386 4501L321 4501L321 4501L257 4501L257 4501L193 4501L193 4501L129 4501L129 4501L64 4501L64 4501L0 4501Z" fill="#1f5876"></path><path d="M0 4417L64 4417L64 4433L129 4433L129 4385L193 4385L193 4389L257 4389L257 4411L321 4411L321 4407L386 4407L386 4406L450 4406L450 4434L450 4501L450 4501L386 4501L386 4501L321 4501L321 4501L257 4501L257 4501L193 4501L193 4501L129 4501L129 4501L64 4501L64 4501L0 4501Z" fill="#1a474c"></path></svg>