<svg id="visual" viewBox="0 0 1280 5400" width="1280" height="5400" xmlns="http://www.w3.org/2000/svg" xmlns:xlink="http://www.w3.org/1999/xlink" version="1.1"><rect x="0" y="0" width="1280" height="5400" fill="#06291d"></rect><path d="M0 4994L183 4994L183 5055L366 5055L366 5070L549 5070L549 5023L731 5023L731 5001L914 5001L914 5069L1097 5069L1097 5009L1280 5009L1280 5101L1280 5401L1280 5401L1097 5401L1097 5401L914 5401L914 5401L731 5401L731 5401L549 5401L549 5401L366 5401L366 5401L183 5401L183 5401L0 5401Z" fill="#a96094"></path><path d="M0 5119L183 5119L183 5172L366 5172L366 5115L549 5115L549 5160L731 5160L731 5149L914 5149L914 5137L1097 5137L1097 5093L1280 5093L1280 5169L1280 5401L1280 5401L1097 5401L1097 5401L914 5401L914 5401L731 5401L731 5401L549 5401L549 5401L366 5401L366 5401L183 5401L183 5401L0 5401Z" fill="#606095"></path><path d="M0 5243L183 5243L183 5206L366 5206L366 5233L549 5233L549 5180L731 5180L731 5234L914 5234L914 5246L1097 5246L1097 5239L1280 5239L1280 5171L1280 5401L1280 5401L1097 5401L1097 5401L914 5401L914 5401L731 5401L731 5401L549 5401L549 5401L366 5401L366 5401L183 5401L183 5401L0 5401Z" fill="#1f5876"></path><path d="M0 5300L183 5300L183 5320L366 5320L366 5263L549 5263L549 5267L731 5267L731 5294L914 5294L914 5289L1097 5289L1097 5287L1280 5287L1280 5321L1280 5401L1280 5401L1097 5401L1097 5401L914 5401L914 5401L731 5401L731 5401L549 5401L549 5401L366 5401L366 5401L183 5401L183 5401L0 5401Z" fill="#1a474c"></path></svg>